<?xml version="1.0" standalone="no"?>
<!DOCTYPE svg PUBLIC "-//W3C//DTD SVG 20010904//EN"
 "http://www.w3.org/TR/2001/REC-SVG-20010904/DTD/svg10.dtd">
<svg version="1.0" xmlns="http://www.w3.org/2000/svg"
 width="804.000000pt" height="816.000000pt" viewBox="0 0 804.000000 816.000000"
 preserveAspectRatio="xMidYMid meet">
<metadata>
Created by potrace 1.10, written by Peter Selinger 2001-2011
</metadata>
<g transform="translate(0.000000,816.000000) scale(0.100000,-0.100000)"
fill="#000000" stroke="none">
<path d="M6182 7458 c-7 -7 -12 -27 -12 -45 0 -23 -5 -35 -17 -39 -10 -3 -26
-10 -35 -15 -27 -14 -50 -11 -78 11 -33 26 -35 25 -75 -11 -46 -42 -51 -63
-26 -98 12 -16 21 -38 21 -49 0 -32 -41 -73 -80 -81 -35 -7 -35 -7 -38 -66 -3
-66 10 -85 59 -85 33 0 48 -18 56 -63 4 -24 0 -43 -11 -58 -23 -34 -20 -51 17
-87 38 -37 68 -40 104 -12 41 32 105 -1 118 -61 9 -39 27 -51 76 -47 43 3 46
5 75 70 13 30 25 40 55 50 35 10 43 9 69 -10 40 -30 50 -28 88 18 37 45 38 49
13 91 -17 27 -18 36 -7 68 11 29 21 39 57 51 l44 16 3 62 3 62 -46 12 c-66 18
-95 78 -60 124 24 31 17 58 -25 99 -30 29 -44 37 -54 30 -72 -53 -62 -52 -136
-15 -8 4 -17 20 -18 36 -2 16 -8 35 -14 42 -13 16 -110 16 -126 0z m81 -96 c4
-21 15 -32 39 -41 18 -7 46 -19 61 -27 37 -18 62 -18 93 2 33 23 41 11 19 -29
-17 -33 -17 -35 0 -68 9 -19 20 -47 24 -64 5 -23 15 -33 41 -41 45 -15 51 -41
13 -49 -50 -11 -53 -14 -53 -43 0 -15 -7 -37 -15 -48 -19 -25 -19 -64 0 -91
21 -29 3 -39 -34 -17 -28 16 -30 16 -94 -14 -44 -21 -70 -40 -79 -58 -18 -37
-36 -41 -44 -9 -5 20 -23 34 -74 59 l-68 34 -31 -19 c-28 -17 -32 -17 -38 -4
-3 9 2 24 11 34 20 21 20 30 2 50 -7 9 -21 37 -31 64 -14 36 -24 49 -44 53
-46 10 -53 14 -49 27 3 6 15 14 29 15 35 5 54 26 68 75 7 23 18 48 23 55 8 9
6 22 -8 47 -10 19 -16 37 -13 40 3 3 23 -2 43 -10 34 -15 40 -14 74 3 20 10
50 25 67 33 16 8 31 24 33 34 9 54 25 57 35 7z"/>
<path d="M6186 7197 c-61 -34 -78 -65 -78 -135 0 -96 49 -147 143 -147 71 0
102 21 136 90 26 53 26 54 9 97 -21 55 -42 79 -88 101 -48 23 -75 21 -122 -6z
m119 -71 c34 -34 40 -68 19 -103 -25 -38 -33 -43 -73 -43 -49 0 -81 33 -81 82
0 76 84 115 135 64z"/>
<path d="M4873 7333 c-9 -3 -13 -31 -13 -88 0 -46 -3 -90 -6 -99 -5 -13 -26
-16 -124 -16 -131 0 -130 0 -130 -69 0 -20 5 -42 12 -49 8 -8 50 -12 124 -12
93 0 113 -3 118 -16 11 -28 6 -140 -6 -152 -9 -9 -73 -12 -225 -12 l-212 0 -7
-37 c-4 -20 -3 -48 2 -62 l9 -26 209 -3 c134 -1 214 -6 223 -13 17 -15 18
-155 1 -165 -7 -4 -98 -7 -204 -6 -108 2 -203 -2 -218 -8 -23 -8 -26 -15 -26
-54 0 -24 6 -48 13 -55 9 -7 90 -12 228 -13 l214 -3 3 -81 c2 -60 -1 -84 -11
-93 -10 -8 -112 -11 -357 -11 l-343 0 -51 54 c-35 37 -63 58 -91 65 -54 15
-59 14 -114 -10 -139 -59 -145 -251 -10 -319 74 -38 153 -21 216 46 l32 34
354 0 c275 0 357 -3 365 -13 6 -7 12 -35 14 -62 l3 -50 105 -7 c131 -8 267
-26 345 -45 96 -23 195 -55 201 -64 3 -5 13 -9 23 -9 10 0 24 -7 31 -15 7 -8
23 -15 36 -15 21 0 140 -51 189 -82 261 -161 443 -340 594 -581 23 -37 46 -78
51 -90 6 -12 14 -29 19 -37 24 -37 71 -152 71 -173 0 -12 7 -31 15 -41 8 -11
15 -31 15 -44 0 -13 5 -33 11 -44 6 -12 20 -62 31 -112 17 -77 21 -129 21
-331 1 -240 -6 -307 -45 -420 -5 -16 -13 -46 -17 -65 -30 -139 -197 -458 -302
-575 -135 -149 -297 -297 -374 -339 -16 -9 -52 -30 -80 -46 -81 -49 -219 -112
-325 -149 -33 -12 -120 -32 -285 -67 -39 -8 -122 -14 -187 -14 -64 0 -123 -3
-132 -6 -14 -5 -16 -34 -16 -214 0 -115 -3 -215 -6 -224 -5 -12 -20 -16 -59
-16 -60 0 -65 -6 -65 -75 0 -51 8 -58 66 -57 52 0 68 -16 59 -58 -6 -28 -9
-30 -53 -30 -67 0 -74 -8 -70 -71 l3 -54 57 -3 c50 -3 57 -6 62 -27 10 -41 -2
-55 -48 -55 -63 0 -78 -16 -74 -75 l3 -50 60 -5 c64 -5 73 -15 61 -65 -5 -21
-13 -24 -64 -27 l-57 -3 -3 -57 -3 -58 50 0 c70 0 81 -14 81 -105 0 -57 3 -74
16 -79 9 -3 112 -6 229 -6 160 0 216 3 222 13 12 19 32 99 33 132 0 17 7 52
15 79 8 27 15 65 15 85 0 39 23 170 46 263 8 32 14 74 14 94 0 51 13 69 62 83
24 7 59 17 78 23 19 6 51 15 70 19 19 4 60 17 90 29 30 12 68 26 85 31 41 13
315 149 344 171 13 10 33 18 45 18 11 0 96 -55 187 -123 91 -67 173 -126 182
-132 9 -5 64 -45 122 -88 58 -43 110 -77 115 -75 5 2 129 119 275 261 168 164
265 266 265 278 0 24 -16 49 -92 151 -32 42 -58 80 -58 83 0 3 -26 41 -57 83
-62 83 -79 108 -90 132 -3 8 -27 42 -51 74 -28 36 -45 69 -45 85 0 15 20 60
44 101 107 178 235 486 260 625 5 27 15 55 24 61 8 6 50 16 92 23 43 6 110 18
148 26 39 8 124 21 190 30 66 9 145 23 176 31 30 8 72 14 92 14 l37 0 0 393 0
393 -77 12 c-43 7 -105 17 -138 24 -33 6 -80 14 -105 19 -73 12 -170 29 -250
45 -42 7 -87 14 -101 14 -44 0 -76 34 -83 87 -4 27 -13 64 -20 83 -8 19 -22
62 -31 95 -10 33 -24 74 -31 90 -6 17 -20 50 -30 75 -37 97 -151 318 -181 352
-17 19 -11 45 15 74 20 22 128 171 157 217 26 41 140 197 160 218 8 9 15 19
15 23 0 5 14 25 30 46 17 21 30 45 30 54 0 9 -118 136 -262 282 -225 227 -265
264 -285 259 -23 -5 -53 -25 -233 -155 -49 -36 -120 -85 -156 -110 -36 -25
-93 -65 -127 -89 -34 -25 -73 -44 -87 -44 -14 0 -45 13 -70 29 -25 15 -65 39
-90 51 -25 13 -52 28 -60 33 -18 11 -127 60 -190 84 -25 10 -58 24 -75 31 -16
7 -57 20 -90 30 -33 9 -78 23 -100 31 -23 8 -51 14 -63 14 -35 0 -62 34 -62
80 0 22 -6 66 -14 98 -23 93 -46 224 -46 263 0 20 -7 56 -15 79 -8 23 -15 59
-15 79 -1 38 -20 117 -33 139 -6 9 -62 12 -225 11 -119 0 -223 -3 -229 -6z
m294 -195 c12 -19 31 -112 42 -203 9 -78 17 -119 46 -255 8 -36 16 -94 19
-129 9 -103 18 -113 111 -129 44 -7 95 -20 113 -28 18 -8 40 -14 50 -14 56 0
389 -140 497 -209 22 -14 56 -34 75 -44 19 -11 51 -32 71 -48 20 -16 48 -29
61 -29 14 0 59 25 104 58 43 31 92 66 109 76 16 11 34 23 40 28 10 8 88 65
150 108 17 12 61 43 99 71 38 27 76 49 85 49 9 0 84 -70 167 -156 l152 -156
-52 -75 c-28 -41 -58 -85 -66 -98 -8 -12 -23 -33 -33 -46 -110 -147 -257 -356
-257 -367 0 -5 23 -45 52 -88 59 -89 72 -113 133 -234 52 -105 97 -216 120
-295 10 -33 22 -71 27 -85 13 -32 48 -198 48 -228 0 -26 16 -34 110 -51 36 -7
97 -18 135 -26 39 -7 104 -19 145 -25 77 -13 121 -21 245 -43 l70 -13 3 -218
c2 -150 -1 -223 -9 -232 -12 -15 -14 -15 -194 -39 -66 -9 -143 -23 -171 -31
-28 -8 -66 -14 -85 -15 -19 0 -81 -8 -138 -18 l-105 -17 -18 -89 c-24 -114
-71 -268 -110 -365 -53 -131 -161 -342 -194 -381 -8 -8 -14 -19 -14 -23 0 -5
-13 -25 -30 -46 -38 -48 -38 -70 1 -123 29 -41 104 -149 191 -275 24 -34 64
-91 91 -127 26 -35 47 -67 47 -71 0 -4 7 -15 15 -24 9 -10 13 -24 10 -32 -3
-8 -75 -80 -158 -160 -162 -154 -154 -150 -212 -115 -11 7 -90 64 -175 127
-85 63 -167 123 -181 132 -14 9 -32 23 -40 30 -31 31 -115 81 -133 80 -10 0
-26 -7 -35 -15 -25 -22 -221 -137 -271 -159 -14 -6 -48 -21 -76 -34 -130 -59
-418 -146 -514 -156 -33 -4 -51 -43 -57 -122 -2 -33 -10 -90 -18 -126 -31
-145 -45 -222 -45 -256 0 -19 -6 -63 -14 -97 -8 -34 -18 -75 -21 -90 -5 -27
-8 -28 -58 -25 l-52 3 -3 509 c-1 281 1 513 6 518 4 4 50 12 102 17 52 6 113
14 135 20 22 5 76 18 120 28 44 9 95 25 114 35 20 10 43 18 53 18 10 0 26 4
36 9 9 4 33 15 52 23 54 22 232 112 244 123 6 6 27 19 46 29 19 11 42 25 50
33 8 7 44 34 80 61 88 64 262 239 335 337 102 135 124 171 192 310 68 138 83
173 83 193 0 10 4 22 9 27 4 6 18 42 29 80 115 395 101 794 -40 1180 -43 118
-83 206 -118 260 -10 17 -26 44 -35 62 -9 17 -25 39 -36 49 -10 9 -19 21 -19
26 0 5 -33 53 -74 106 -80 105 -197 223 -317 319 -150 120 -417 263 -564 302
-16 5 -41 13 -55 19 -23 9 -69 20 -247 57 -40 8 -94 15 -122 15 -27 0 -52 4
-55 9 -8 12 -9 1009 -1 1021 9 14 92 12 102 -2z m-1158 -944 c39 -32 42 -80 9
-111 -35 -32 -64 -37 -97 -17 -49 29 -56 92 -15 129 34 32 65 32 103 -1z"/>
<path d="M6710 6254 l-32 -36 33 -34 c40 -41 54 -42 91 -7 34 33 35 61 4 91
-34 31 -59 28 -96 -14z m77 -39 c-2 -5 -13 -11 -25 -13 -16 -3 -22 2 -22 16 0
10 3 21 6 25 9 8 45 -16 41 -28z"/>
<path d="M7293 4213 c-18 -20 -33 -38 -33 -40 0 -2 11 -8 25 -13 14 -5 25 -16
25 -24 0 -9 9 -20 19 -25 20 -11 32 -3 44 32 4 9 16 17 27 17 11 0 20 5 20 10
0 15 -67 80 -82 79 -7 0 -28 -16 -45 -36z"/>
<path d="M6481 2494 c-38 -32 -39 -53 -3 -87 35 -33 52 -34 86 -2 34 31 34 67
0 94 -34 27 -46 26 -83 -5z m57 -42 c3 -17 -2 -22 -17 -22 -14 0 -21 6 -21 18
0 38 33 41 38 4z"/>
<path d="M4090 7313 c-35 -7 -110 -70 -110 -93 0 -10 -4 -21 -9 -24 -32 -20
-5 -135 43 -185 79 -82 239 -53 281 51 34 86 9 180 -60 224 -34 22 -102 35
-145 27z m107 -115 c34 -32 31 -79 -8 -112 -38 -32 -70 -33 -105 -3 -55 47
-19 137 55 137 22 0 43 -8 58 -22z"/>
<path d="M2220 6933 c-146 -32 -256 -75 -364 -141 -78 -47 -93 -59 -198 -164
-88 -88 -144 -164 -187 -253 -46 -96 -53 -101 -128 -109 -184 -19 -309 -58
-478 -150 -43 -24 -154 -111 -213 -168 -119 -113 -225 -274 -277 -418 -48
-134 -54 -165 -71 -358 -8 -81 9 -247 32 -328 21 -74 18 -97 -18 -151 -18 -26
-35 -50 -38 -53 -12 -11 -52 -75 -94 -151 -41 -77 -42 -77 -74 -159 -93 -237
-107 -320 -107 -620 0 -211 13 -368 33 -393 5 -6 12 -28 15 -47 5 -39 15 -68
65 -190 68 -167 148 -299 258 -426 73 -83 203 -212 233 -229 9 -5 42 -29 73
-52 31 -23 97 -66 147 -94 74 -42 91 -56 91 -76 0 -32 37 -164 50 -177 5 -5
10 -16 10 -23 0 -17 67 -158 98 -207 86 -134 203 -263 309 -342 21 -16 40 -33
42 -37 2 -5 13 -13 25 -18 11 -5 35 -18 51 -29 17 -11 50 -30 75 -43 25 -12
52 -27 60 -32 25 -16 170 -65 260 -87 72 -18 115 -21 280 -21 213 0 283 11
445 70 89 33 89 33 196 97 42 25 79 46 83 46 5 0 18 9 30 19 11 11 50 44 86
74 84 70 240 249 240 275 0 6 12 30 28 54 44 69 50 81 72 127 11 24 20 51 20
60 0 9 4 21 9 26 28 32 81 308 81 423 l0 52 165 0 c91 0 165 -4 165 -8 0 -5
14 -22 31 -40 40 -41 116 -64 167 -50 48 13 102 46 102 63 0 7 7 18 15 25 23
19 20 121 -4 169 -33 64 -104 96 -189 84 -35 -5 -54 -16 -93 -55 l-49 -49
-152 3 -153 3 0 100 0 100 159 3 c97 1 165 7 173 13 16 14 17 73 2 101 -10 19
-19 20 -117 18 -59 -2 -133 -2 -164 -1 l-58 1 0 85 0 85 295 0 296 0 99 -98
99 -98 373 -2 373 -3 37 -43 c123 -143 347 -22 300 162 -23 86 -110 141 -203
126 -32 -5 -54 -19 -92 -56 l-49 -48 -217 -1 c-119 -1 -274 -1 -346 0 l-130 1
-84 83 c-47 45 -91 88 -98 94 -11 10 -92 13 -334 13 l-319 0 0 1343 c-1 1137
-3 1351 -15 1402 -8 33 -15 74 -15 92 0 18 -6 47 -14 65 -8 18 -22 53 -31 78
-25 68 -84 180 -120 230 -62 85 -246 254 -330 304 -44 25 -91 49 -105 53 -14
3 -29 9 -35 13 -17 13 -133 50 -157 50 -13 0 -45 7 -72 15 -63 19 -267 18
-356 -2z m285 -184 c140 -19 246 -55 364 -123 55 -32 165 -132 214 -194 59
-76 68 -90 98 -152 56 -118 75 -179 83 -270 10 -113 8 -1352 -3 -1363 -6 -6
-36 1 -83 21 -136 57 -359 58 -481 4 -82 -37 -97 -29 -97 51 -1 51 -34 242
-48 277 -5 14 -18 61 -28 105 -10 44 -24 90 -31 101 -12 19 -10 28 12 69 48
92 30 180 -51 241 -32 25 -46 29 -99 28 -51 0 -68 -5 -98 -28 -78 -60 -101
-159 -53 -234 32 -51 54 -68 104 -83 55 -16 73 -44 96 -144 10 -44 24 -98 31
-120 31 -97 47 -276 43 -495 -4 -209 -14 -299 -43 -365 -7 -16 -21 -55 -31
-85 -10 -30 -23 -62 -29 -70 -6 -8 -20 -32 -30 -52 -19 -37 -21 -38 -77 -38
-112 0 -178 -68 -178 -183 0 -60 3 -70 32 -102 81 -93 186 -98 264 -14 54 59
62 99 39 191 -5 20 -1 35 18 60 34 45 97 183 97 212 0 13 7 29 15 36 8 7 15
22 15 35 0 12 4 35 10 51 5 16 18 104 29 196 10 93 24 174 31 182 6 8 30 24
53 34 116 53 121 54 244 54 112 0 125 -2 199 -32 43 -18 91 -45 107 -61 l27
-29 1 -288 c1 -158 1 -429 0 -602 -1 -173 -1 -397 -1 -497 0 -131 -3 -183 -11
-183 -7 0 -33 22 -59 49 -45 47 -99 86 -170 123 -58 31 -211 78 -251 78 -38 0
-60 14 -79 51 -21 39 -85 69 -146 69 -64 0 -110 -23 -145 -72 -29 -40 -32
-148 -5 -193 39 -67 133 -101 209 -76 19 7 55 33 80 58 l46 46 73 -17 c226
-54 361 -180 433 -406 26 -79 24 -310 -4 -400 -58 -190 -128 -327 -222 -435
-182 -208 -381 -325 -644 -377 -81 -16 -126 -18 -235 -14 -135 4 -263 25 -283
45 -6 6 -19 11 -30 11 -23 0 -199 85 -248 119 -20 14 -47 33 -60 41 -77 49
-235 229 -291 331 -118 213 -154 406 -112 593 25 106 114 286 143 286 3 0 35
-27 69 -59 35 -33 79 -68 99 -78 19 -10 54 -28 77 -40 22 -12 46 -22 53 -22
24 -2 83 -43 83 -59 1 -10 9 -31 18 -49 72 -133 284 -104 321 44 42 165 -138
283 -279 183 -31 -22 -33 -22 -83 -6 -128 40 -251 145 -305 259 -24 51 -32 83
-38 159 -3 53 -3 117 0 142 7 42 11 47 51 65 27 12 56 36 75 63 30 40 32 47
27 107 -7 94 -61 153 -153 167 -73 11 -131 -21 -171 -93 -18 -32 -33 -66 -33
-76 0 -22 36 -102 61 -137 18 -24 19 -31 7 -98 -10 -63 -10 -84 7 -169 10 -54
24 -110 32 -125 20 -41 17 -51 -32 -110 -25 -30 -45 -60 -45 -65 0 -6 -7 -13
-15 -17 -8 -3 -15 -12 -15 -20 0 -8 -8 -29 -17 -48 -9 -18 -20 -41 -25 -52
-16 -32 -48 -160 -48 -193 0 -36 -11 -47 -40 -38 -17 5 -20 15 -20 69 0 35 7
85 15 112 8 27 15 59 15 70 0 12 6 27 14 33 29 24 26 51 -7 72 -49 29 -82 25
-102 -13 -28 -55 -55 -151 -55 -195 0 -29 -4 -43 -13 -43 -24 0 -97 70 -97 93
0 31 26 150 37 173 6 10 17 40 25 66 l15 48 -31 19 c-17 11 -42 22 -56 26 -22
5 -28 1 -43 -30 -9 -20 -17 -44 -17 -53 0 -10 -7 -27 -15 -38 -8 -10 -15 -33
-15 -50 0 -17 -7 -37 -15 -44 -12 -10 -19 -7 -41 17 -52 55 -58 70 -46 111 6
20 19 64 28 97 9 33 21 64 26 70 17 19 7 33 -39 53 -57 24 -69 19 -97 -39 -34
-70 -45 -63 -97 63 -26 62 -54 138 -63 168 -8 30 -22 78 -30 105 -27 93 -39
301 -26 448 12 124 37 253 58 294 5 10 12 32 15 49 13 68 145 319 205 389 15
17 37 45 50 61 136 175 371 315 632 375 198 45 191 45 206 24 8 -10 14 -29 14
-42 0 -27 34 -109 89 -210 13 -25 73 -88 144 -151 24 -21 37 -41 37 -58 0 -63
96 -144 170 -144 39 0 109 35 137 69 34 41 47 117 28 171 -19 53 -38 76 -87
101 -50 26 -105 24 -162 -5 l-47 -24 -32 26 c-18 15 -37 34 -43 42 -7 8 -21
25 -31 37 -11 12 -28 41 -38 65 -10 24 -25 59 -34 78 -24 53 -22 342 4 402 38
90 55 124 79 152 22 29 25 30 63 18 81 -24 146 -9 198 46 40 43 56 100 42 154
-22 90 -82 138 -170 138 -99 0 -161 -56 -175 -157 -7 -48 -17 -70 -58 -123
-28 -36 -58 -85 -68 -110 -10 -25 -24 -60 -32 -78 -8 -18 -17 -79 -20 -135 -4
-56 -12 -105 -18 -109 -6 -4 -22 -8 -35 -8 -13 0 -47 -6 -75 -14 -28 -8 -89
-23 -136 -34 -191 -46 -376 -134 -512 -245 -46 -37 -47 -37 -58 -17 -17 31 -4
55 48 93 51 36 154 92 190 102 23 7 29 33 13 63 -5 9 -12 25 -15 35 -3 9 -12
20 -20 23 -17 6 -131 -44 -188 -83 -45 -30 -58 -24 -58 27 0 35 4 41 53 71 28
19 72 43 97 54 76 34 99 55 93 90 -2 17 -13 41 -22 54 l-18 24 -77 -37 c-42
-20 -81 -36 -86 -36 -17 0 -11 52 11 86 15 25 43 45 104 74 45 22 85 46 88 54
11 27 -13 86 -39 98 -14 6 -23 17 -22 24 5 22 89 117 144 163 62 52 192 141
205 141 5 0 37 11 72 25 96 40 190 58 332 64 l130 6 26 80 c56 169 155 308
289 409 138 103 254 151 420 174 94 13 116 13 205 1z m-741 -960 c23 -18 27
-27 24 -68 -3 -42 -6 -48 -40 -64 -28 -14 -42 -16 -57 -8 -37 20 -51 42 -51
81 0 69 69 102 124 59z m652 -374 c28 -37 28 -62 0 -100 -23 -32 -92 -27 -122
8 -29 34 -24 71 13 105 37 34 77 29 109 -13z m-555 -744 c38 -38 39 -83 3
-116 -34 -32 -74 -32 -108 0 -42 39 -32 100 22 129 39 22 50 20 83 -13z m443
-952 c48 -22 45 -109 -5 -134 -39 -21 -53 -19 -88 11 -76 63 1 164 93 123z
m-999 -160 c46 -40 47 -77 4 -113 -38 -33 -73 -33 -104 -1 -35 34 -33 78 4
116 37 37 52 36 96 -2z m1297 -409 c50 -39 42 -109 -16 -136 -32 -16 -36 -16
-68 3 -29 17 -33 25 -36 65 -3 40 1 49 24 67 33 26 64 27 96 1z m2620 -57 c34
-39 39 -61 23 -93 -29 -55 -76 -65 -124 -24 -40 34 -41 74 -4 109 33 30 83 33
105 8z m-3353 -459 c25 -31 26 -55 6 -93 -35 -70 -144 -37 -145 43 0 71 96
105 139 50z m2149 2 c46 -49 17 -122 -53 -133 -69 -11 -110 73 -64 131 27 35
84 36 117 2z"/>
<path d="M2236 6506 c-3 -14 -16 -26 -31 -30 -30 -8 -33 -36 -5 -43 12 -3 27
-18 36 -34 18 -35 27 -36 43 -5 7 13 24 29 37 35 32 14 30 27 -5 45 -16 9 -31
24 -34 36 -7 28 -33 25 -41 -4z"/>
<path d="M2840 5995 c-5 -14 -21 -30 -35 -35 -32 -12 -32 -19 4 -31 19 -7 31
-19 33 -32 4 -30 38 -35 45 -7 3 11 19 28 36 37 29 15 30 16 12 29 -10 8 -22
14 -25 14 -4 0 -12 11 -18 25 -15 32 -40 32 -52 0z"/>
<path d="M985 5615 c-3 -8 -7 -21 -9 -29 -3 -8 -15 -16 -27 -18 -34 -5 -34
-25 -1 -42 16 -8 32 -25 35 -37 5 -19 8 -20 21 -9 9 7 16 18 16 24 0 6 10 16
23 21 28 13 29 39 0 43 -13 2 -25 14 -32 33 -11 32 -19 37 -26 14z"/>
<path d="M2822 5187 c-33 -35 -27 -68 19 -105 34 -26 107 35 92 75 -10 26 -45
52 -69 53 -11 0 -30 -10 -42 -23z m58 -32 c13 -16 6 -35 -15 -35 -18 0 -28 17
-21 35 7 19 20 19 36 0z"/>
<path d="M2991 4984 c-38 -32 -40 -65 -5 -93 35 -27 57 -26 88 3 33 30 33 56
-2 89 -35 33 -43 33 -81 1z m59 -49 c0 -25 -23 -35 -35 -15 -10 16 2 40 20 40
9 0 15 -9 15 -25z"/>
<path d="M3134 4255 c-7 -30 -1 -40 21 -32 20 8 20 57 0 57 -8 0 -17 -11 -21
-25z"/>
<path d="M736 4222 c-4 -10 -18 -24 -31 -30 -34 -15 -32 -27 11 -68 38 -35 54
-36 54 -3 0 12 10 23 25 29 31 12 32 28 3 32 -14 2 -24 12 -28 27 -7 31 -26
38 -34 13z"/>
<path d="M1555 3994 c-30 -32 -31 -51 -6 -83 23 -30 64 -31 97 -1 31 30 30 48
-1 83 -32 34 -59 34 -90 1z m55 -44 c0 -10 -5 -22 -10 -25 -13 -8 -24 20 -16
41 8 20 26 9 26 -16z"/>
<path d="M1668 3151 l-31 -28 22 -37 c12 -20 26 -36 31 -36 5 0 15 -2 23 -5
17 -7 77 43 77 64 0 21 -50 71 -72 71 -10 0 -32 -13 -50 -29z m62 -36 c0 -16
-6 -25 -15 -25 -9 0 -15 9 -15 25 0 16 6 25 15 25 9 0 15 -9 15 -25z"/>
<path d="M2262 2468 c-7 -7 -12 -25 -12 -40 0 -57 -77 -90 -126 -53 -31 23
-58 17 -92 -21 -38 -42 -39 -55 -11 -94 40 -53 10 -120 -54 -120 -36 0 -48
-22 -45 -81 l3 -52 45 -11 c68 -17 92 -85 50 -139 l-20 -26 31 -36 c48 -54 64
-60 98 -35 36 25 60 25 100 3 24 -14 33 -27 37 -55 6 -32 11 -38 38 -44 18 -3
48 -2 66 3 30 8 36 14 43 50 6 34 14 43 46 57 37 17 39 17 77 -3 21 -12 42
-21 46 -21 14 0 78 73 78 89 0 9 -7 25 -15 35 -35 46 -7 126 43 126 47 0 56
14 56 76 -1 61 -11 74 -57 74 -20 0 -33 9 -47 33 -24 39 -25 56 -3 102 l17 35
-39 40 c-45 46 -53 48 -89 19 -19 -15 -34 -19 -52 -15 -43 11 -74 37 -74 61 0
48 -9 55 -69 55 -31 0 -62 -5 -69 -12z m81 -97 c11 -27 24 -41 43 -45 14 -4
46 -16 71 -28 l44 -21 24 23 c24 23 45 20 45 -6 0 -8 -7 -17 -15 -20 -19 -8
-20 -58 -2 -73 8 -6 19 -28 25 -50 14 -44 27 -58 62 -63 34 -4 32 -22 -3 -26
-31 -4 -54 -32 -63 -80 -4 -17 -13 -37 -20 -43 -19 -15 -18 -48 1 -55 16 -7
21 -44 6 -44 -5 0 -23 8 -39 17 -28 16 -30 16 -62 -7 -18 -13 -46 -26 -64 -29
-26 -6 -32 -12 -36 -41 -5 -33 -30 -56 -30 -27 0 25 -40 67 -65 67 -13 0 -26
4 -30 9 -3 5 -21 15 -41 21 -32 11 -39 10 -65 -9 -34 -25 -48 -11 -25 24 20
30 20 56 1 81 -8 10 -15 28 -15 39 0 32 -27 63 -61 70 -36 8 -34 29 4 33 30 4
57 36 57 67 0 11 7 31 17 44 15 22 15 26 -2 57 -22 42 -15 51 28 36 28 -10 39
-9 73 7 22 11 52 23 67 26 20 5 27 14 27 30 0 29 10 55 20 55 4 0 15 -17 23
-39z"/>
<path d="M2263 2205 c-78 -34 -106 -146 -55 -219 83 -120 272 -61 272 84 0
111 -112 181 -217 135z m137 -90 c36 -58 9 -113 -59 -122 -35 -5 -44 -2 -71
25 -37 37 -38 68 -5 105 21 21 35 27 70 27 39 0 46 -4 65 -35z"/>
<path d="M2929 2432 c-7 -20 -18 -32 -32 -34 -30 -4 -28 -31 3 -38 15 -3 26
-15 30 -30 8 -35 26 -35 38 0 8 20 18 30 31 30 31 0 26 15 -19 61 l-40 42 -11
-31z"/>
<path d="M1591 1778 c-17 -17 -31 -35 -31 -39 0 -19 54 -69 74 -69 28 0 66 39
66 68 0 18 -54 72 -72 72 -3 0 -20 -14 -37 -32z m64 -28 c8 -13 -13 -40 -30
-40 -13 0 -27 35 -17 44 9 10 40 7 47 -4z"/>
<path d="M3565 6741 c-8 -17 -22 -31 -30 -31 -29 0 -24 -21 13 -60 22 -22 44
-40 48 -40 5 0 17 14 26 30 9 17 24 30 33 30 24 0 18 38 -7 42 -14 2 -24 12
-28 28 -9 37 -36 37 -55 1z"/>
<path d="M951 6747 c-127 -30 -173 -192 -82 -289 72 -78 203 -71 270 13 72 92
27 240 -82 270 -21 5 -44 12 -50 13 -7 2 -32 -1 -56 -7z m93 -108 c20 -16 26
-29 26 -61 0 -55 -22 -78 -72 -78 -73 0 -106 83 -53 135 30 30 64 32 99 4z"/>
<path d="M4700 5763 c-95 -19 -185 -41 -230 -58 -19 -7 -50 -19 -67 -25 -46
-17 -43 -41 12 -128 1 -1 28 7 61 18 146 51 358 90 484 90 105 0 326 -38 450
-77 84 -26 291 -135 373 -196 162 -120 314 -289 398 -442 59 -109 79 -150 79
-166 0 -10 4 -20 9 -23 11 -7 51 -136 51 -164 0 -11 6 -35 14 -53 8 -19 20
-93 27 -166 14 -142 3 -321 -26 -428 -8 -27 -21 -79 -31 -115 -9 -36 -23 -75
-31 -87 -7 -12 -13 -27 -13 -33 0 -22 -67 -149 -126 -240 -107 -162 -317 -364
-452 -434 -43 -22 -47 -36 -25 -81 30 -63 41 -64 124 -10 213 139 371 301 493
510 26 44 52 87 57 95 30 50 84 199 124 345 54 197 54 504 0 700 -7 28 -21 77
-30 110 -18 68 -24 81 -91 220 -44 91 -117 209 -169 275 -31 40 -226 232 -265
262 -198 152 -429 253 -690 302 -110 21 -403 20 -510 -1z"/>
<path d="M7471 5735 c-143 -44 -176 -223 -57 -313 37 -28 53 -33 99 -33 46 -1
64 4 99 28 23 16 48 39 54 52 7 12 17 28 23 34 17 17 13 95 -6 130 -27 49 -45
68 -83 87 -53 26 -81 29 -129 15z m104 -120 c32 -31 32 -66 -1 -104 -30 -36
-61 -39 -98 -10 -44 35 -50 55 -26 94 11 18 26 36 33 39 31 12 69 5 92 -19z"/>
<path d="M3917 5462 c-15 -15 -27 -36 -27 -45 0 -22 33 -55 62 -62 27 -6 78
34 78 61 0 23 -49 74 -70 74 -9 0 -28 -13 -43 -28z m61 -48 c-4 -25 -32 -24
-36 0 -4 21 18 40 31 27 5 -5 7 -17 5 -27z"/>
<path d="M5380 5075 c-7 -8 -19 -15 -27 -15 -30 0 -75 -37 -111 -90 -20 -30
-44 -61 -54 -68 -44 -32 -139 -214 -172 -332 -37 -132 -44 -250 -26 -457 9
-112 29 -208 56 -270 8 -17 14 -35 14 -40 0 -18 41 -89 74 -129 41 -49 136
-114 166 -114 11 0 23 -7 26 -15 9 -22 142 -22 150 0 4 10 20 15 49 15 29 0
45 5 49 15 3 8 13 15 22 15 29 0 120 98 151 163 64 132 114 441 114 696 0 89
0 90 32 117 44 36 56 61 57 114 0 60 -42 110 -93 110 -32 0 -36 4 -72 76 -43
84 -150 194 -190 194 -11 0 -30 7 -41 15 -27 20 -157 21 -174 0z m151 -256
c59 -46 52 -59 -31 -59 -59 0 -71 3 -80 20 -7 14 -8 26 0 39 21 40 61 40 111
0z m-231 -254 c7 -8 21 -15 32 -15 10 0 21 -7 24 -15 4 -10 21 -15 54 -15 30
0 52 -6 60 -15 18 -21 108 -20 132 2 39 35 46 -4 35 -197 -17 -288 -88 -510
-163 -510 -12 0 -27 -7 -34 -15 -7 -8 -20 -15 -30 -15 -10 0 -23 7 -30 15 -7
8 -18 15 -25 15 -20 0 -78 73 -96 122 -44 116 -51 155 -52 330 -2 156 0 180
21 243 27 83 46 101 72 70z"/>
<path d="M4276 5045 c-3 -8 -15 -15 -26 -15 -31 0 -60 -56 -60 -115 1 -121
-66 -569 -91 -616 -8 -16 -22 -19 -83 -19 -53 0 -77 -4 -86 -15 -7 -8 -18 -15
-25 -15 -25 0 -45 -48 -45 -108 0 -77 22 -99 100 -104 54 -3 55 -4 52 -31 -2
-16 -16 -54 -31 -85 -97 -198 -96 -195 -94 -256 2 -84 25 -106 110 -106 l63 0
73 153 c41 83 84 186 97 227 13 41 28 81 33 88 7 8 46 12 133 12 146 0 140 5
161 -135 29 -194 33 -220 43 -251 17 -49 43 -67 101 -68 45 -1 54 3 81 33 29
32 30 37 24 95 -10 90 -22 174 -35 239 -7 33 -10 65 -7 73 3 8 26 14 68 16 58
3 64 5 85 37 42 63 23 140 -46 182 -23 14 -50 19 -101 19 -56 0 -71 3 -79 18
-12 23 -51 138 -51 152 0 5 -12 34 -26 63 -14 28 -30 66 -34 82 -17 63 -84
239 -107 280 -10 17 -31 57 -49 90 -21 39 -39 61 -52 63 -11 2 -26 10 -32 18
-16 18 -56 18 -64 -1z m131 -620 c8 -22 17 -51 20 -65 4 -14 13 -35 21 -47 18
-29 5 -35 -64 -31 l-49 3 3 40 c5 59 31 147 44 143 5 -2 17 -22 25 -43z"/>
<path d="M7401 3376 c-5 -13 -19 -26 -30 -29 -29 -7 -27 -43 2 -51 13 -3 27
-17 32 -32 l10 -27 43 41 c47 45 51 58 23 67 -11 3 -26 17 -35 30 -21 31 -34
32 -45 1z"/>
<path d="M717 2092 c-35 -37 -34 -57 5 -92 26 -24 35 -27 52 -18 26 14 55 49
56 67 0 20 -50 71 -70 71 -9 0 -28 -13 -43 -28z m61 -45 c2 -12 -3 -17 -17
-17 -12 0 -21 6 -21 13 0 31 32 34 38 4z"/>
<path d="M6216 2025 c-32 -30 -33 -65 -3 -93 30 -28 58 -28 85 1 30 32 27 61
-9 91 -38 32 -40 32 -73 1z m49 -51 c0 -10 -8 -20 -17 -22 -18 -3 -26 27 -11
42 12 11 28 0 28 -20z"/>
<path d="M4188 2027 c-17 -14 -46 -58 -73 -112 -11 -22 -33 -59 -48 -82 -15
-24 -27 -47 -27 -52 0 -5 -7 -14 -15 -21 -8 -7 -15 -23 -15 -36 0 -23 8 -28
65 -36 19 -3 20 -13 25 -232 l5 -230 25 -6 c36 -9 157 -7 167 3 4 5 10 111 13
235 5 217 6 227 25 230 57 8 65 13 65 37 0 13 -4 26 -9 30 -6 3 -22 29 -36 58
-14 28 -41 77 -60 107 -19 30 -39 65 -44 77 -14 31 -44 45 -63 30z m47 -134
c11 -21 30 -53 42 -72 29 -42 29 -54 1 -66 -23 -10 -23 -13 -28 -240 l-5 -230
-37 -3 c-21 -2 -39 -2 -40 0 -1 2 -5 107 -8 233 -5 226 -5 230 -27 240 -28 12
-28 19 -4 53 10 15 30 51 45 80 15 29 30 51 34 48 4 -2 16 -22 27 -43z"/>
<path d="M3516 1749 c-35 -28 -35 -70 0 -98 15 -12 32 -21 39 -21 27 0 65 41
65 70 0 29 -38 70 -65 70 -7 0 -24 -9 -39 -21z m54 -44 c0 -19 -20 -29 -32
-17 -15 15 -2 43 17 36 8 -3 15 -12 15 -19z"/>
<path d="M5839 1633 c-6 -16 -15 -38 -20 -50 -4 -12 -24 -29 -43 -38 -34 -16
-36 -16 -65 4 -40 29 -51 27 -94 -17 -44 -45 -45 -57 -12 -96 l24 -28 -19 -39
c-16 -30 -29 -41 -60 -49 l-40 -11 0 -58 c0 -61 7 -73 50 -86 28 -8 69 -52 70
-75 0 -8 -9 -28 -20 -45 -28 -43 -25 -55 24 -97 l44 -38 27 22 c54 42 135 16
135 -43 0 -37 27 -51 93 -47 51 3 52 3 58 40 8 48 23 66 66 74 27 5 41 2 63
-15 16 -11 33 -21 38 -21 17 0 82 79 82 99 0 10 -9 30 -20 44 -11 14 -20 31
-20 39 0 26 33 60 76 78 l44 19 0 55 c0 58 -14 76 -59 76 -45 0 -80 91 -46
120 25 21 17 57 -20 95 -39 38 -56 43 -74 21 -19 -22 -58 -27 -94 -12 -26 10
-36 22 -41 46 -10 51 -23 60 -82 60 -50 0 -55 -2 -65 -27z m91 -84 c0 -26 6
-32 38 -45 20 -8 50 -21 65 -29 36 -19 66 -19 73 0 7 16 44 21 44 6 0 -5 -7
-22 -17 -38 -15 -28 -15 -31 10 -82 15 -29 27 -59 27 -67 0 -8 13 -17 30 -21
43 -8 46 -20 10 -42 -19 -11 -41 -39 -55 -67 -33 -71 -33 -76 -14 -111 20 -36
12 -50 -17 -28 -26 20 -40 19 -104 -8 -75 -31 -77 -32 -84 -72 -4 -19 -11 -37
-16 -40 -10 -6 -14 1 -24 48 -5 20 -17 32 -44 43 -20 9 -51 23 -69 31 -29 14
-35 14 -57 -1 -14 -9 -32 -16 -41 -16 -14 0 -14 3 0 30 20 38 19 58 -3 95 -10
17 -22 42 -25 57 -6 21 -14 27 -40 30 -42 4 -41 24 3 46 23 11 36 25 38 41 2
13 12 37 23 55 24 40 24 58 -1 81 -21 19 -27 45 -10 45 6 0 23 -9 39 -21 l28
-20 45 24 c25 13 55 26 67 30 12 3 28 20 36 41 19 45 45 48 45 5z"/>
<path d="M5839 1377 c-97 -65 -106 -176 -19 -246 34 -27 47 -31 97 -31 56 0
61 2 98 40 39 40 40 43 40 110 0 66 -2 71 -34 101 -61 55 -125 65 -182 26z
m129 -65 c12 -8 22 -18 22 -22 0 -4 3 -21 6 -37 9 -43 -35 -93 -82 -93 -87 0
-118 124 -41 163 34 16 57 14 95 -11z"/>
<path d="M3192 1401 c-64 -41 -82 -74 -82 -151 0 -45 5 -73 17 -90 60 -85 149
-113 232 -70 49 25 75 57 91 115 22 79 -11 156 -85 200 -59 34 -116 33 -173
-4z m142 -96 c43 -40 35 -92 -20 -126 l-34 -21 -34 21 c-37 23 -46 39 -46 77
0 32 45 74 80 74 15 0 39 -11 54 -25z"/>
</g>
</svg>
